# xmcd
#
# Track frame offsets:
#	150
#	22508
#	48245
#	89593
#
# Disc length: 1492 seconds
#
# Revision: 1
# Processed by: cddbd v1.5PL3 Copyright (c) Steve Scherf et al.
# Submitted via: CDex 1.50Beta5
#
DISCID=2105d204
DTITLE=傳田真央 - 抱き寄せたDESTINY〜Dream of Asia〜
DYEAR=2001
DGENRE=Pop
TTITLE0=抱き寄せたDESTINY〜Dream of Asia〜(Original Version)
TTITLE1=抱き寄せたDESTINY〜Dream of Asia〜(Tiny Voice,Sweet Breez
TTITLE2=抱き寄せたDESTINY〜Dream of Asia〜(DJ TAKE’S Radio Mix)
TTITLE3=抱き寄せたDESTINY〜Dream of Asia〜(Original Instrumental)
EXTD=
EXTT0=
EXTT1=
EXTT2=
EXTT3=
PLAYORDER=
